<!-- LeadFlow AI — Icon Set -->
<!-- Version: 1.0-MVP -->
<!-- Source: Lucide React icons exported as SVG -->

<!-- ============================================ -->
<!-- NAVIGATION ICONS (20x20) -->
<!-- ============================================ -->

<!-- Inbox -->
<svg xmlns="http://www.w3.org/2000/svg" width="20" height="20" viewBox="0 0 24 24" fill="none" stroke="currentColor" stroke-width="2" stroke-linecap="round" stroke-linejoin="round">
  <polyline points="22 12 16 12 14 15 10 15 8 12 2 12"></polyline>
  <path d="M5.45 5.11 2 12v6a2 2 0 0 0 2 2h16a2 2 0 0 0 2-2v-6l-3.45-6.89A2 2 0 0 0 16.76 4H7.24a2 2 0 0 0-1.79 1.11z"></path>
</svg>

<!-- Message Square -->
<svg xmlns="http://www.w3.org/2000/svg" width="20" height="20" viewBox="0 0 24 24" fill="none" stroke="currentColor" stroke-width="2" stroke-linecap="round" stroke-linejoin="round">
  <path d="M21 15a2 2 0 0 1-2 2H7l-4 4V5a2 2 0 0 1 2-2h14a2 2 0 0 1 2 2z"></path>
</svg>

<!-- Bar Chart 3 -->
<svg xmlns="http://www.w3.org/2000/svg" width="20" height="20" viewBox="0 0 24 24" fill="none" stroke="currentColor" stroke-width="2" stroke-linecap="round" stroke-linejoin="round">
  <path d="M3 3v18h18"></path>
  <path d="M18 17V9"></path>
  <path d="M13 17V5"></path>
  <path d="M8 17v-3"></path>
</svg>

<!-- User -->
<svg xmlns="http://www.w3.org/2000/svg" width="20" height="20" viewBox="0 0 24 24" fill="none" stroke="currentColor" stroke-width="2" stroke-linecap="round" stroke-linejoin="round">
  <path d="M19 21v-2a4 4 0 0 0-4-4H9a4 4 0 0 0-4 4v2"></path>
  <circle cx="12" cy="7" r="4"></circle>
</svg>

<!-- Settings -->
<svg xmlns="http://www.w3.org/2000/svg" width="20" height="20" viewBox="0 0 24 24" fill="none" stroke="currentColor" stroke-width="2" stroke-linecap="round" stroke-linejoin="round">
  <path d="M12.22 2h-.44a2 2 0 0 0-2 2v.18a2 2 0 0 1-1 1.73l-.43.25a2 2 0 0 1-2 0l-.15-.08a2 2 0 0 0-2.73.73l-.22.38a2 2 0 0 0 .73 2.73l.15.1a2 2 0 0 1 1 1.72v.51a2 2 0 0 1-1 1.74l-.15.09a2 2 0 0 0-.73 2.73l.22.38a2 2 0 0 0 2.73.73l.15-.08a2 2 0 0 1 2 0l.43.25a2 2 0 0 1 1 1.73V20a2 2 0 0 0 2 2h.44a2 2 0 0 0 2-2v-.18a2 2 0 0 1 1-1.73l.43-.25a2 2 0 0 1 2 0l.15.08a2 2 0 0 0 2.73-.73l.22-.39a2 2 0 0 0-.73-2.73l-.15-.08a2 2 0 0 1-1-1.74v-.5a2 2 0 0 1 1-1.74l.15-.09a2 2 0 0 0 .73-2.73l-.22-.38a2 2 0 0 0-2.73-.73l-.15.08a2 2 0 0 1-2 0l-.43-.25a2 2 0 0 1-1-1.73V4a2 2 0 0 0-2-2z"></path>
  <circle cx="12" cy="12" r="3"></circle>
</svg>

<!-- Bell -->
<svg xmlns="http://www.w3.org/2000/svg" width="20" height="20" viewBox="0 0 24 24" fill="none" stroke="currentColor" stroke-width="2" stroke-linecap="round" stroke-linejoin="round">
  <path d="M6 8a6 6 0 0 1 12 0c0 7 3 9 3 9H3s3-2 3-9"></path>
  <path d="M10.3 21a1.94 1.94 0 0 0 3.4 0"></path>
</svg>

<!-- ============================================ -->
<!-- ACTION ICONS (16x16) -->
<!-- ============================================ -->

<!-- More Vertical -->
<svg xmlns="http://www.w3.org/2000/svg" width="16" height="16" viewBox="0 0 24 24" fill="none" stroke="currentColor" stroke-width="2" stroke-linecap="round" stroke-linejoin="round">
  <circle cx="12" cy="12" r="1"></circle>
  <circle cx="12" cy="5" r="1"></circle>
  <circle cx="12" cy="19" r="1"></circle>
</svg>

<!-- Arrow Left -->
<svg xmlns="http://www.w3.org/2000/svg" width="20" height="20" viewBox="0 0 24 24" fill="none" stroke="currentColor" stroke-width="2" stroke-linecap="round" stroke-linejoin="round">
  <path d="m12 19-7-7 7-7"></path>
  <path d="M19 12H5"></path>
</svg>

<!-- X (Close) -->
<svg xmlns="http://www.w3.org/2000/svg" width="20" height="20" viewBox="0 0 24 24" fill="none" stroke="currentColor" stroke-width="2" stroke-linecap="round" stroke-linejoin="round">
  <path d="M18 6 6 18"></path>
  <path d="m6 6 12 12"></path>
</svg>

<!-- Check -->
<svg xmlns="http://www.w3.org/2000/svg" width="16" height="16" viewBox="0 0 24 24" fill="none" stroke="currentColor" stroke-width="2" stroke-linecap="round" stroke-linejoin="round">
  <path d="M20 6 9 17l-5-5"></path>
</svg>

<!-- Check Check (Delivered) -->
<svg xmlns="http://www.w3.org/2000/svg" width="14" height="14" viewBox="0 0 24 24" fill="none" stroke="currentColor" stroke-width="2" stroke-linecap="round" stroke-linejoin="round">
  <path d="M18 6 7 17l-5-5"></path>
  <path d="m22 10-7 7-4-4"></path>
</svg>

<!-- Phone -->
<svg xmlns="http://www.w3.org/2000/svg" width="16" height="16" viewBox="0 0 24 24" fill="none" stroke="currentColor" stroke-width="2" stroke-linecap="round" stroke-linejoin="round">
  <path d="M22 16.92v3a2 2 0 0 1-2.18 2 19.79 19.79 0 0 1-8.63-3.07 19.5 19.5 0 0 1-6-6 19.79 19.79 0 0 1-3.07-8.67A2 2 0 0 1 4.11 2h3a2 2 0 0 1 2 1.72 12.84 12.84 0 0 0 .7 2.81 2 2 0 0 1-.45 2.11L8.09 9.91a16 16 0 0 0 6 6l1.27-1.27a2 2 0 0 1 2.11-.45 12.84 12.84 0 0 0 2.81.7A2 2 0 0 1 22 16.92z"></path>
</svg>

<!-- Mail -->
<svg xmlns="http://www.w3.org/2000/svg" width="16" height="16" viewBox="0 0 24 24" fill="none" stroke="currentColor" stroke-width="2" stroke-linecap="round" stroke-linejoin="round">
  <rect width="20" height="16" x="2" y="4" rx="2"></rect>
  <path d="m22 7-8.97 5.7a1.94 1.94 0 0 1-2.06 0L2 7"></path>
</svg>

<!-- Calendar -->
<svg xmlns="http://www.w3.org/2000/svg" width="16" height="16" viewBox="0 0 24 24" fill="none" stroke="currentColor" stroke-width="2" stroke-linecap="round" stroke-linejoin="round">
  <path d="M8 2v4"></path>
  <path d="M16 2v4"></path>
  <rect width="18" height="18" x="3" y="4" rx="2"></rect>
  <path d="M3 10h18"></path>
</svg>

<!-- Clock -->
<svg xmlns="http://www.w3.org/2000/svg" width="16" height="16" viewBox="0 0 24 24" fill="none" stroke="currentColor" stroke-width="2" stroke-linecap="round" stroke-linejoin="round">
  <circle cx="12" cy="12" r="10"></circle>
  <polyline points="12 6 12 12 16 14"></polyline>
</svg>

<!-- Rotate Ccw -->
<svg xmlns="http://www.w3.org/2000/svg" width="16" height="16" viewBox="0 0 24 24" fill="none" stroke="currentColor" stroke-width="2" stroke-linecap="round" stroke-linejoin="round">
  <path d="M3 12a9 9 0 1 0 9-9 9.75 9.75 0 0 0-6.74 2.74L3 12"></path>
  <path d="M3 3v9h9"></path>
</svg>

<!-- Check Circle -->
<svg xmlns="http://www.w3.org/2000/svg" width="16" height="16" viewBox="0 0 24 24" fill="none" stroke="currentColor" stroke-width="2" stroke-linecap="round" stroke-linejoin="round">
  <circle cx="12" cy="12" r="10"></circle>
  <path d="m9 12 2 2 4-4"></path>
</svg>

<!-- Send -->
<svg xmlns="http://www.w3.org/2000/svg" width="16" height="16" viewBox="0 0 24 24" fill="none" stroke="currentColor" stroke-width="2" stroke-linecap="round" stroke-linejoin="round">
  <path d="m22 2-7 20-4-9-9-4 20-7z"></path>
  <path d="M22 2 11 13"></path>
</svg>

<!-- Plus -->
<svg xmlns="http://www.w3.org/2000/svg" width="20" height="20" viewBox="0 0 24 24" fill="none" stroke="currentColor" stroke-width="2" stroke-linecap="round" stroke-linejoin="round">
  <path d="M5 12h14"></path>
  <path d="M12 5v14"></path>
</svg>

<!-- Filter -->
<svg xmlns="http://www.w3.org/2000/svg" width="16" height="16" viewBox="0 0 24 24" fill="none" stroke="currentColor" stroke-width="2" stroke-linecap="round" stroke-linejoin="round">
  <polygon points="22 3 2 3 10 12.46 10 19 14 21 14 12.46 22 3"></polygon>
</svg>

<!-- Search -->
<svg xmlns="http://www.w3.org/2000/svg" width="16" height="16" viewBox="0 0 24 24" fill="none" stroke="currentColor" stroke-width="2" stroke-linecap="round" stroke-linejoin="round">
  <circle cx="11" cy="11" r="8"></circle>
  <path d="m21 21-4.3-4.3"></path>
</svg>

<!-- Refresh Ccw -->
<svg xmlns="http://www.w3.org/2000/svg" width="16" height="16" viewBox="0 0 24 24" fill="none" stroke="currentColor" stroke-width="2" stroke-linecap="round" stroke-linejoin="round">
  <path d="M21 12a9 9 0 0 0-9-9 9.75 9.75 0 0 0-6.74 2.74L3 12"></path>
  <path d="M3 3v9h9"></path>
</svg>

<!-- ============================================ -->
<!-- STATUS ICONS (16x16) -->
<!-- ============================================ -->

<!-- Trending Up -->
<svg xmlns="http://www.w3.org/2000/svg" width="16" height="16" viewBox="0 0 24 24" fill="none" stroke="currentColor" stroke-width="2" stroke-linecap="round" stroke-linejoin="round">
  <polyline points="22 7 13.5 15.5 8.5 10.5 2 17"></polyline>
  <polyline points="16 7 22 7 22 13"></polyline>
</svg>

<!-- Trending Down -->
<svg xmlns="http://www.w3.org/2000/svg" width="16" height="16" viewBox="0 0 24 24" fill="none" stroke="currentColor" stroke-width="2" stroke-linecap="round" stroke-linejoin="round">
  <polyline points="22 17 13.5 8.5 8.5 13.5 2 7"></polyline>
  <polyline points="16 17 22 17 22 11"></polyline>
</svg>

<!-- Info -->
<svg xmlns="http://www.w3.org/2000/svg" width="16" height="16" viewBox="0 0 24 24" fill="none" stroke="currentColor" stroke-width="2" stroke-linecap="round" stroke-linejoin="round">
  <circle cx="12" cy="12" r="10"></circle>
  <path d="M12 16v-4"></path>
  <path d="M12 8h.01"></path>
</svg>

<!-- Alert Triangle -->
<svg xmlns="http://www.w3.org/2000/svg" width="16" height="16" viewBox="0 0 24 24" fill="none" stroke="currentColor" stroke-width="2" stroke-linecap="round" stroke-linejoin="round">
  <path d="m21.73 18-8-14a2 2 0 0 0-3.48 0l-8 14A2 2 0 0 0 4 21h16a2 2 0 0 0 1.73-3Z"></path>
  <path d="M12 9v4"></path>
  <path d="M12 17h.01"></path>
</svg>

<!-- X Circle (Error) -->
<svg xmlns="http://www.w3.org/2000/svg" width="16" height="16" viewBox="0 0 24 24" fill="none" stroke="currentColor" stroke-width="2" stroke-linecap="round" stroke-linejoin="round">
  <circle cx="12" cy="12" r="10"></circle>
  <path d="m15 9-6 6"></path>
  <path d="m9 9 6 6"></path>
</svg>

<!-- ============================================ -->
<!-- LEAD INFO ICONS (16x16) -->
<!-- ============================================ -->

<!-- Dollar Sign -->
<svg xmlns="http://www.w3.org/2000/svg" width="16" height="16" viewBox="0 0 24 24" fill="none" stroke="currentColor" stroke-width="2" stroke-linecap="round" stroke-linejoin="round">
  <line x1="12" x2="12" y1="2" y2="22"></line>
  <path d="M17 5H9.5a3.5 3.5 0 0 0 0 7h5a3.5 3.5 0 0 1 0 7H6"></path>
</svg>

<!-- Map Pin -->
<svg xmlns="http://www.w3.org/2000/svg" width="16" height="16" viewBox="0 0 24 24" fill="none" stroke="currentColor" stroke-width="2" stroke-linecap="round" stroke-linejoin="round">
  <path d="M20 10c0 6-8 12-8 12s-8-6-8-12a8 8 0 0 1 16 0Z"></path>
  <circle cx="12" cy="10" r="3"></circle>
</svg>

<!-- Target -->
<svg xmlns="http://www.w3.org/2000/svg" width="16" height="16" viewBox="0 0 24 24" fill="none" stroke="currentColor" stroke-width="2" stroke-linecap="round" stroke-linejoin="round">
  <circle cx="12" cy="12" r="10"></circle>
  <circle cx="12" cy="12" r="6"></circle>
  <circle cx="12" cy="12" r="2"></circle>
</svg>

<!-- Home -->
<svg xmlns="http://www.w3.org/2000/svg" width="16" height="16" viewBox="0 0 24 24" fill="none" stroke="currentColor" stroke-width="2" stroke-linecap="round" stroke-linejoin="round">
  <path d="m3 9 9-7 9 7v11a2 2 0 0 1-2 2H5a2 2 0 0 1-2-2z"></path>
  <polyline points="9 22 9 12 15 12 15 22"></polyline>
</svg>

<!-- ============================================ -->
<!-- LOADING & UTILITY ICONS -->
<!-- ============================================ -->

<!-- Loader 2 -->
<svg xmlns="http://www.w3.org/2000/svg" width="20" height="20" viewBox="0 0 24 24" fill="none" stroke="currentColor" stroke-width="2" stroke-linecap="round" stroke-linejoin="round">
  <path d="M21 12a9 9 0 1 1-6.219-8.56"></path>
</svg>

<!-- Chevron Down -->
<svg xmlns="http://www.w3.org/2000/svg" width="16" height="16" viewBox="0 0 24 24" fill="none" stroke="currentColor" stroke-width="2" stroke-linecap="round" stroke-linejoin="round">
  <path d="m6 9 6 6 6-6"></path>
</svg>

<!-- Chevron Right -->
<svg xmlns="http://www.w3.org/2000/svg" width="16" height="16" viewBox="0 0 24 24" fill="none" stroke="currentColor" stroke-width="2" stroke-linecap="round" stroke-linejoin="round">
  <path d="m9 18 6-6-6-6"></path>
</svg>

<!-- Log Out -->
<svg xmlns="http://www.w3.org/2000/svg" width="16" height="16" viewBox="0 0 24 24" fill="none" stroke="currentColor" stroke-width="2" stroke-linecap="round" stroke-linejoin="round">
  <path d="M9 21H5a2 2 0 0 1-2-2V5a2 2 0 0 1 2-2h4"></path>
  <polyline points="16 17 21 12 16 7"></polyline>
  <line x1="21" x2="9" y1="12" y2="12"></line>
</svg>

<!-- Edit -->
<svg xmlns="http://www.w3.org/2000/svg" width="16" height="16" viewBox="0 0 24 24" fill="none" stroke="currentColor" stroke-width="2" stroke-linecap="round" stroke-linejoin="round">
  <path d="M11 4H4a2 2 0 0 0-2 2v14a2 2 0 0 0 2 2h14a2 2 0 0 0 2-2v-7"></path>
  <path d="M18.5 2.5a2.121 2.121 0 0 1 3 3L12 15l-4 1 1-4 9.5-9.5z"></path>
</svg>

<!-- Trash -->
<svg xmlns="http://www.w3.org/2000/svg" width="16" height="16" viewBox="0 0 24 24" fill="none" stroke="currentColor" stroke-width="2" stroke-linecap="round" stroke-linejoin="round">
  <path d="M3 6h18"></path>
  <path d="M19 6v14c0 1-1 2-2 2H7c-1 0-2-1-2-2V6"></path>
  <path d="M8 6V4c0-1 1-2 2-2h4c1 0 2 1 2 2v2"></path>
</svg>

<!-- Copy -->
<svg xmlns="http://www.w3.org/2000/svg" width="16" height="16" viewBox="0 0 24 24" fill="none" stroke="currentColor" stroke-width="2" stroke-linecap="round" stroke-linejoin="round">
  <rect width="14" height="14" x="8" y="8" rx="2" ry="2"></rect>
  <path d="M4 16c-1.1 0-2-.9-2-2V4c0-1.1.9-2 2-2h10c1.1 0 2 .9 2 2"></path>
</svg>

<!-- External Link -->
<svg xmlns="http://www.w3.org/2000/svg" width="16" height="16" viewBox="0 0 24 24" fill="none" stroke="currentColor" stroke-width="2" stroke-linecap="round" stroke-linejoin="round">
  <path d="M18 13v6a2 2 0 0 1-2 2H5a2 2 0 0 1-2-2V8a2 2 0 0 1 2-2h6"></path>
  <polyline points="15 3 21 3 21 9"></polyline>
  <line x1="10" x2="21" y1="14" y2="3"></line>
</svg>

<!-- ============================================ -->
<!-- PRIORITY INDICATOR DOTS -->
<!-- ============================================ -->

<!-- Urgent Priority (Amber) -->
<svg xmlns="http://www.w3.org/2000/svg" width="8" height="8" viewBox="0 0 8 8">
  <circle cx="4" cy="4" r="4" fill="#f59e0b"/>
</svg>

<!-- Qualified Priority (Emerald) -->
<svg xmlns="http://www.w3.org/2000/svg" width="8" height="8" viewBox="0 0 8 8">
  <circle cx="4" cy="4" r="4" fill="#10b981"/>
</svg>

<!-- Pending Priority (Blue) -->
<svg xmlns="http://www.w3.org/2000/svg" width="8" height="8" viewBox="0 0 8 8">
  <circle cx="4" cy="4" r="4" fill="#3b82f6"/>
</svg>

<!-- Closed Priority (Slate) -->
<svg xmlns="http://www.w3.org/2000/svg" width="8" height="8" viewBox="0 0 8 8">
  <circle cx="4" cy="4" r="4" fill="#64748b"/>
</svg>
